<?xml version="1.0" encoding="UTF-8"?>
<svg id="Layer_2" data-name="Layer 2" xmlns="http://www.w3.org/2000/svg" viewBox="0 0 1148.63 184.44">
  <defs>
    <style>
      .cls-1 {
        fill: #ef5128;
      }

      .cls-2 {
        fill: #361b3d;
      }
    </style>
  </defs>
  <g id="Layer_1-2" data-name="Layer 1">
    <g>
      <g>
        <path class="cls-2" d="M46.95,34.84c7.45,0,13.6,1.68,18.26,5.22,4.84,3.54,8.2,7.45,10.06,11.74h.19v-14.16h30.74v122.97l-31.3,23.84v-60.55h-.19c-1.49,2.42-3.17,4.84-5.03,6.89-2.05,2.05-5.03,4.1-8.94,5.96-3.91,1.86-8.38,2.79-13.41,2.79-6.52,0-12.67-1.12-18.26-3.73-5.78-2.42-10.81-5.78-15.09-10.25-4.28-4.47-7.82-9.87-10.25-16.58-2.61-6.71-3.73-13.97-3.73-21.8s1.3-15.09,3.73-21.8c2.42-6.71,5.96-12.11,10.06-16.58,4.28-4.47,9.31-7.82,14.9-10.43,5.78-2.42,11.74-3.54,18.26-3.54ZM29.25,87.19c0,8.57,2.24,15.65,6.52,21.24,4.28,5.59,10.43,8.57,18.07,8.57s13.97-2.79,18.26-8.76c4.28-5.78,6.52-12.85,6.52-21.05s-2.24-14.9-6.71-20.68c-4.47-5.78-10.43-8.76-17.88-8.76s-13.6,2.79-17.88,8.57c-4.66,5.59-6.89,12.67-6.89,20.87h0Z"/>
        <path class="cls-2" d="M120.28,95.94v-58.12h29.25v49.56c0,2.79,0,5.4.19,7.45.19,2.24.56,4.47,1.12,7.08.56,2.61,1.49,4.66,2.61,6.33,1.12,1.68,2.79,2.98,4.66,4.1,2.05,1.12,4.47,1.68,7.27,1.68,12.48,0,18.82-11.36,18.82-34.28v-41.92h29.62v99.11h-28.69v-15.84c-6.15,12.67-16.02,19-29.81,19-23.29-.19-35.02-14.72-35.02-44.15h0Z"/>
        <path class="cls-2" d="M274.97,136.74V37.82h28.69v15.84c6.15-12.67,16.02-19,29.62-19,23.66,0,35.58,14.53,35.58,43.78v58.31h-29.25v-49.37c0-2.79,0-5.4-.19-7.64-.19-2.24-.56-4.47-1.12-7.08-.56-2.61-1.49-4.66-2.61-6.15-1.12-1.68-2.79-2.98-4.66-4.1-2.05-1.12-4.47-1.68-7.27-1.68-12.48,0-18.82,11.36-18.82,34.28v41.73h-29.99Z"/>
        <path class="cls-2" d="M383,136.74V37.82h28.69v15.84c6.15-12.67,16.02-19,29.62-19,23.66,0,35.58,14.53,35.58,43.78v58.31h-29.25v-49.37c0-2.79,0-5.4-.19-7.64-.19-2.24-.56-4.47-1.12-7.08-.56-2.61-1.49-4.66-2.61-6.15-1.12-1.68-2.79-2.98-4.66-4.1-2.05-1.12-4.47-1.68-7.27-1.68-12.48,0-18.82,11.36-18.82,34.28v41.73h-29.99Z"/>
        <path class="cls-1" d="M581.28,136.74V0h28.69v53.47c6.15-12.48,16.02-18.82,29.62-18.82,23.66,0,35.58,14.53,35.58,43.78v58.31h-29.25v-49.37c0-2.79,0-5.4-.19-7.64-.19-2.24-.56-4.47-1.12-7.08-.56-2.61-1.49-4.66-2.61-6.15-1.12-1.68-2.79-2.98-4.66-4.1-2.05-1.12-4.47-1.68-7.27-1.68-12.48,0-18.82,11.36-18.82,34.28v41.73h-29.99Z"/>
        <path class="cls-1" d="M738.47,140.1c-7.08,0-13.79-1.12-20.31-3.54-6.33-2.42-12.11-5.78-16.95-10.06-5.03-4.47-8.94-10.06-11.74-16.58-2.79-6.71-4.47-14.34-4.47-22.54s1.49-15.65,4.47-22.36c2.98-6.71,6.89-12.3,11.74-16.58,5.03-4.28,10.62-7.64,16.95-10.06,6.33-2.42,13.23-3.54,20.31-3.54s13.79,1.12,20.12,3.54c6.33,2.42,11.92,5.78,16.95,10.06,4.84,4.28,8.76,9.87,11.74,16.58,2.79,6.71,4.47,14.16,4.47,22.36s-1.49,15.65-4.47,22.54c-2.79,6.71-6.71,12.3-11.74,16.58-4.84,4.47-10.62,7.82-16.95,10.06-6.33,2.24-13.04,3.54-20.12,3.54ZM713.5,87.19c0,8.38,2.24,15.46,6.89,21.24,4.47,5.78,10.62,8.57,18.07,8.57s13.41-2.79,17.88-8.57c4.47-5.78,6.71-12.67,6.71-21.24s-2.24-15.46-6.89-21.05c-4.47-5.78-10.62-8.57-17.88-8.57s-13.6,2.79-18.07,8.57c-4.47,5.59-6.71,12.67-6.71,21.05Z"/>
        <path class="cls-1" d="M802.13,136.74V37.82h28.69v15.84c2.24-5.4,5.59-10.06,10.25-13.6,4.66-3.54,10.43-5.4,17.33-5.4,12.11,0,20.68,5.96,25.9,17.88,2.79-5.96,6.33-10.43,10.43-13.41,4.1-2.98,9.69-4.47,16.77-4.47,12.67,0,22.36,3.91,29.25,11.74,6.89,7.82,10.43,18.44,10.43,32.23v58.31h-29.06v-49.37c0-3.54-.19-6.71-.56-9.5-.37-2.79-.93-5.59-1.86-8.38-.93-2.79-2.42-5.03-4.47-6.52-2.05-1.68-4.66-2.24-7.64-2.24-5.22,0-9.31,2.79-12.11,8.2-2.79,5.4-4.28,12.67-4.28,21.61v46.39h-28.13v-49.37c0-2.42,0-4.66-.19-6.33,0-1.68-.37-3.73-.56-5.96-.19-2.24-.75-4.1-1.49-5.78-.75-1.49-1.49-2.98-2.61-4.47-1.12-1.49-2.42-2.42-4.1-3.17-1.68-.75-3.73-1.12-5.96-1.12-3.35,0-5.96.93-8.2,2.61-2.24,1.68-3.91,4.28-5.03,7.64-1.12,3.35-2.05,6.89-2.42,10.81-.56,3.91-.75,8.2-.75,13.23v41.73h-29.62v-.19Z"/>
        <path class="cls-1" d="M964.39,68.37c1.86-9.5,6.52-17.7,14.16-24.22,7.64-6.71,17.7-9.87,29.99-9.87,14.16,0,24.96,3.73,32.79,10.99,7.82,7.27,11.74,18.44,11.74,33.16v31.48c0,12.48.56,21.42,1.86,26.83h-28.88c-.56-2.61-.93-5.03-.93-7.45v-5.78h-.19c-6.52,10.81-16.39,16.02-29.99,16.02-10.25,0-18.63-2.79-25.15-8.2-6.52-5.4-9.69-12.67-9.69-21.8,0-3.73.56-7.08,1.86-10.06,1.12-2.98,2.79-5.59,4.47-7.64,1.68-2.05,4.1-3.91,6.89-5.59,2.79-1.68,5.59-2.98,7.82-3.91,2.24-.93,5.22-1.86,8.57-2.61,3.35-.75,5.96-1.3,7.64-1.49,1.68-.19,3.91-.56,6.71-.93,2.79-.37,4.66-.56,5.96-.75,1.12-.19,2.79-.56,4.66-.93s3.35-.75,4.28-1.12c.93-.37,1.68-1.12,2.79-1.68.93-.75,1.68-1.68,2.05-2.61.37-.93.56-2.24.56-3.73,0-3.54-1.49-6.33-4.28-8.2-2.79-1.86-6.71-2.79-11.36-2.79-4.1,0-7.82,1.12-10.81,3.35-2.98,2.24-5.03,5.59-6.33,9.5h-27.2ZM989.73,107.87c0,3.17,1.12,5.78,3.54,7.82,2.24,2.05,5.96,3.17,10.99,3.17,13.79,0,20.49-9.31,20.49-27.94l-.19-5.22c-2.79,4.47-8.94,7.82-18.26,9.87-5.96,1.3-10.25,2.98-12.85,5.03-2.42,1.68-3.73,4.1-3.73,7.27h0Z"/>
        <path class="cls-1" d="M1120.12,67.07c-.75-3.91-2.42-7.08-5.03-8.94-2.61-2.05-5.96-2.98-9.87-2.98s-6.71.93-9.13,2.61c-2.24,1.68-3.54,3.91-3.54,6.33,0,2.79,1.12,5.22,3.35,6.89,2.24,1.68,6.52,3.54,12.48,5.03,1.68.37,3.91,1.12,6.89,1.86,2.98.75,5.22,1.3,6.71,1.86,8.94,2.42,15.65,6.15,20.12,10.62,4.47,4.66,6.52,10.62,6.52,18.07,0,9.13-3.91,16.58-11.55,22.73-7.64,6.15-18.07,9.13-31.3,9.13s-22.73-2.98-30.37-8.76c-7.64-5.78-12.3-14.34-13.79-25.71h28.69c.75,4.28,2.24,7.64,5.03,10.06,2.61,2.24,6.15,3.54,10.43,3.54s7.82-.93,10.25-2.79c2.61-1.86,3.73-4.1,3.73-7.08,0-1.86-.37-3.35-1.12-4.66-.75-1.3-1.86-2.42-3.35-3.17-1.49-.93-2.79-1.49-4.1-1.86s-2.79-.93-4.84-1.49c-1.68-.56-4.1-1.12-7.45-2.05s-5.78-1.68-7.45-2.05c-17.7-5.03-26.64-14.72-26.64-29.43,0-8.76,3.73-15.84,10.99-21.61,7.27-5.78,16.95-8.57,29.06-8.57s21.8,2.79,29.06,8.57c7.27,5.78,11.74,13.79,13.04,24.22l-26.83-.37h0Z"/>
        <path class="cls-2" d="M229.02,60.77v75.04h31.48V37.63l-31.48,23.14Z"/>
        <path class="cls-1" d="M550.22,64.18l.03-4.76h20.31v-21.8h-20.31V3.17l-.03.03V0l-29,21.22v16.55l-.04.04h-16.58v21.8h16.58v38.75c0,6.15.56,11.55,1.49,16.02,1.12,4.47,2.61,8.57,5.03,12.3,2.24,3.73,5.78,6.52,10.43,8.38,4.66,1.86,10.43,2.79,17.14,2.61l13.97-.19v-23.29h-5.96c-2.42,0-4.47-.37-6.15-.93-1.68-.75-2.98-1.49-3.91-2.42-.93-.93-1.49-2.42-2.05-4.47-.56-2.05-.74-3.91-.93-5.59-.13-1.31-.16-3.02-.17-4.94h.15v-31.66Z"/>
      </g>
      <path class="cls-2" d="M260.78,1.02h-32.04v28.32h32.04V1.02Z"/>
    </g>
  </g>
</svg>