<?xml version="1.0" encoding="UTF-8"?>
<svg id="Layer_2" data-name="Layer 2" xmlns="http://www.w3.org/2000/svg" viewBox="0 0 652.9 94">
  <defs>
    <style>
      .cls-1 {
        fill: #ee5b34;
      }

      .cls-2 {
        fill: #6b003e;
      }
    </style>
  </defs>
  <g id="Layer_1-2" data-name="Layer 1">
    <g>
      <path class="cls-2" d="M25.2,18.7c4,0,7.3.9,9.8,2.8,2.6,1.9,4.4,4,5.4,6.3h.1v-7.6h16.5v73.8h-16.8v-27.5h-.1c-.8,1.3-1.7,2.6-2.7,3.7-1.1,1.1-2.7,2.2-4.8,3.2s-4.5,1.5-7.2,1.5c-3.5,0-6.8-.6-9.8-2-3.1-1.3-5.8-3.1-8.1-5.5-2.3-2.4-4.2-5.3-5.5-8.9-1.4-3.6-2-7.5-2-11.7s.7-8.1,2-11.7c1.3-3.6,3.2-6.5,5.4-8.9,2.3-2.4,5-4.2,8-5.6,3.1-1.3,6.3-1.9,9.8-1.9ZM15.7,46.8c0,4.6,1.2,8.4,3.5,11.4s5.6,4.6,9.7,4.6,7.5-1.5,9.8-4.7c2.3-3.1,3.5-6.9,3.5-11.3s-1.2-8-3.6-11.1-5.6-4.7-9.6-4.7-7.3,1.5-9.6,4.6c-2.5,3-3.7,6.8-3.7,11.2h0Z"/>
      <path class="cls-2" d="M68.5,51.5v-31.2h15.7v26.6c0,1.5,0,2.9.1,4,.1,1.2.3,2.4.6,3.8.3,1.4.8,2.5,1.4,3.4s1.5,1.6,2.5,2.2c1.1.6,2.4.9,3.9.9,6.7,0,10.1-6.1,10.1-18.4v-22.5h15.9v53.2h-15.4v-8.5c-3.3,6.8-8.6,10.2-16,10.2-12.5-.1-18.8-7.9-18.8-23.7h0Z"/>
      <path class="cls-2" d="M159,73.4V20.3h15.4v8.5c3.3-6.8,8.6-10.2,15.9-10.2,12.7,0,19.1,7.8,19.1,23.5v31.3h-15.7v-26.5c0-1.5,0-2.9-.1-4.1-.1-1.2-.3-2.4-.6-3.8-.3-1.4-.8-2.5-1.4-3.3-.6-.9-1.5-1.6-2.5-2.2-1.1-.6-2.4-.9-3.9-.9-6.7,0-10.1,6.1-10.1,18.4v22.4h-16.1Z"/>
      <path class="cls-2" d="M220.9,73.4V20.3h15.4v8.5c3.3-6.8,8.6-10.2,15.9-10.2,12.7,0,19.1,7.8,19.1,23.5v31.3h-15.7v-26.5c0-1.5,0-2.9-.1-4.1-.1-1.2-.3-2.4-.6-3.8-.3-1.4-.8-2.5-1.4-3.3-.6-.9-1.5-1.6-2.5-2.2-1.1-.6-2.4-.9-3.9-.9-6.7,0-10.1,6.1-10.1,18.4v22.4h-16.1Z"/>
      <path class="cls-1" d="M316.6,50.1c0,1.7,0,3,.1,4,.1.9.2,1.9.5,3s.6,1.9,1.1,2.4,1.2.9,2.1,1.3c.9.3,2,.5,3.3.5h3.2v12.5l-7.5.1c-3.6.1-6.7-.4-9.2-1.4s-4.4-2.5-5.6-4.5c-1.3-2-2.1-4.2-2.7-6.6-.5-2.4-.8-5.3-.8-8.6v-20.8h-8.9v-11.7h8.9v-11.8l15.6-6.8v18.5h10.9v11.7h-10.9l-.1,18.2h0Z"/>
      <path class="cls-1" d="M336,73.4V0h15.4v28.7c3.3-6.7,8.6-10.1,15.9-10.1,12.7,0,19.1,7.8,19.1,23.5v31.3h-15.7v-26.5c0-1.5,0-2.9-.1-4.1-.1-1.2-.3-2.4-.6-3.8-.3-1.4-.8-2.5-1.4-3.3-.6-.9-1.5-1.6-2.5-2.2-1.1-.6-2.4-.9-3.9-.9-6.7,0-10.1,6.1-10.1,18.4v22.4h-16.1Z"/>
      <path class="cls-1" d="M423.2,75.2c-3.8,0-7.4-.6-10.9-1.9-3.4-1.3-6.5-3.1-9.1-5.4-2.7-2.4-4.8-5.4-6.3-8.9-1.5-3.6-2.4-7.7-2.4-12.1s.8-8.4,2.4-12,3.7-6.6,6.3-8.9c2.7-2.3,5.7-4.1,9.1-5.4,3.4-1.3,7.1-1.9,10.9-1.9s7.4.6,10.8,1.9c3.4,1.3,6.4,3.1,9.1,5.4,2.6,2.3,4.7,5.3,6.3,8.9,1.5,3.6,2.4,7.6,2.4,12s-.8,8.4-2.4,12.1c-1.5,3.6-3.6,6.6-6.3,8.9-2.6,2.4-5.7,4.2-9.1,5.4-3.4,1.2-7,1.9-10.8,1.9ZM409.8,46.8c0,4.5,1.2,8.3,3.7,11.4,2.4,3.1,5.7,4.6,9.7,4.6s7.2-1.5,9.6-4.6,3.6-6.8,3.6-11.4-1.2-8.3-3.7-11.3c-2.4-3.1-5.7-4.6-9.6-4.6s-7.3,1.5-9.7,4.6c-2.4,3-3.6,6.8-3.6,11.3Z"/>
      <path class="cls-1" d="M460.2,73.4V20.3h15.4v8.5c1.2-2.9,3-5.4,5.5-7.3,2.5-1.9,5.6-2.9,9.3-2.9,6.5,0,11.1,3.2,13.9,9.6,1.5-3.2,3.4-5.6,5.6-7.2,2.2-1.6,5.2-2.4,9-2.4,6.8,0,12,2.1,15.7,6.3s5.6,9.9,5.6,17.3v31.3h-15.6v-26.5c0-1.9-.1-3.6-.3-5.1s-.5-3-1-4.5-1.3-2.7-2.4-3.5c-1.1-.9-2.5-1.2-4.1-1.2-2.8,0-5,1.5-6.5,4.4s-2.3,6.8-2.3,11.6v24.9h-15.1v-26.5c0-1.3,0-2.5-.1-3.4,0-.9-.2-2-.3-3.2s-.4-2.2-.8-3.1c-.4-.8-.8-1.6-1.4-2.4-.6-.8-1.3-1.3-2.2-1.7s-2-.6-3.2-.6c-1.8,0-3.2.5-4.4,1.4-1.2.9-2.1,2.3-2.7,4.1s-1.1,3.7-1.3,5.8c-.3,2.1-.4,4.4-.4,7.1v22.4h-15.9v-.1Z"/>
      <path class="cls-1" d="M551,36.7c1-5.1,3.5-9.5,7.6-13,4.1-3.6,9.5-5.3,16.1-5.3,7.6,0,13.4,2,17.6,5.9,4.2,3.9,6.3,9.9,6.3,17.8v16.9c0,6.7.3,11.5,1,14.4h-15.5c-.3-1.4-.5-2.7-.5-4v-3.1h-.1c-3.5,5.8-8.8,8.6-16.1,8.6-5.5,0-10-1.5-13.5-4.4s-5.2-6.8-5.2-11.7c0-2,.3-3.8,1-5.4.6-1.6,1.5-3,2.4-4.1s2.2-2.1,3.7-3,3-1.6,4.2-2.1,2.8-1,4.6-1.4,3.2-.7,4.1-.8c.9-.1,2.1-.3,3.6-.5s2.5-.3,3.2-.4c.6-.1,1.5-.3,2.5-.5s1.8-.4,2.3-.6c.5-.2.9-.6,1.5-.9.5-.4.9-.9,1.1-1.4.2-.5.3-1.2.3-2,0-1.9-.8-3.4-2.3-4.4s-3.6-1.5-6.1-1.5c-2.2,0-4.2.6-5.8,1.8s-2.7,3-3.4,5.1h-14.6ZM564.6,57.9c0,1.7.6,3.1,1.9,4.2,1.2,1.1,3.2,1.7,5.9,1.7,7.4,0,11-5,11-15l-.1-2.8c-1.5,2.4-4.8,4.2-9.8,5.3-3.2.7-5.5,1.6-6.9,2.7-1.3.9-2,2.2-2,3.9h0Z"/>
      <path class="cls-1" d="M637.6,36c-.4-2.1-1.3-3.8-2.7-4.8-1.4-1.1-3.2-1.6-5.3-1.6s-3.6.5-4.9,1.4c-1.2.9-1.9,2.1-1.9,3.4,0,1.5.6,2.8,1.8,3.7s3.5,1.9,6.7,2.7c.9.2,2.1.6,3.7,1,1.6.4,2.8.7,3.6,1,4.8,1.3,8.4,3.3,10.8,5.7,2.4,2.5,3.5,5.7,3.5,9.7,0,4.9-2.1,8.9-6.2,12.2-4.1,3.3-9.7,4.9-16.8,4.9s-12.2-1.6-16.3-4.7-6.6-7.7-7.4-13.8h15.4c.4,2.3,1.2,4.1,2.7,5.4,1.4,1.2,3.3,1.9,5.6,1.9s4.2-.5,5.5-1.5c1.4-1,2-2.2,2-3.8,0-1-.2-1.8-.6-2.5-.4-.7-1-1.3-1.8-1.7-.8-.5-1.5-.8-2.2-1s-1.5-.5-2.6-.8c-.9-.3-2.2-.6-4-1.1s-3.1-.9-4-1.1c-9.5-2.7-14.3-7.9-14.3-15.8,0-4.7,2-8.5,5.9-11.6,3.9-3.1,9.1-4.6,15.6-4.6s11.7,1.5,15.6,4.6c3.9,3.1,6.3,7.4,7,13l-14.4-.2h0Z"/>
      <path class="cls-2" d="M130.6,38v34.9h16.9V20.2l-16.9,17.8Z"/>
      <path class="cls-2" d="M147.6.6h-17.2v15.2h17.2V.6Z"/>
    </g>
  </g>
</svg>